<?xml version="1.0" encoding="UTF-8"?>
<svg id="_图层_2" data-name="图层 2" xmlns="http://www.w3.org/2000/svg" viewBox="0 0 99.9 31.87">
  <defs>
    <style>
      .cls-1 {
        fill: #d9281e;
      }
    </style>
  </defs>
  <g id="_图层_1-2" data-name="图层 1">
    <g>
      <g>
        <g>
          <path class="cls-1" d="m39.56,29.86c0,.1,0,.18.02.24.02.07.05.12.09.16.04.04.1.07.18.09.07.02.17.03.29.03v.23h-1.76v-.23c.11,0,.2-.02.27-.03.07-.02.12-.05.16-.08.04-.04.07-.09.08-.15.01-.06.02-.14.02-.23v-3.08c0-.09,0-.17-.02-.23-.01-.06-.04-.11-.08-.15-.04-.04-.09-.06-.16-.08-.07-.02-.16-.03-.27-.03v-.23h3.14l.08,1.02h-.28c-.05-.15-.09-.26-.13-.35-.04-.09-.08-.16-.13-.21-.05-.05-.11-.09-.17-.11s-.15-.03-.25-.03h-1.07v1.8h.61c.1,0,.19,0,.26-.02.07-.01.13-.04.17-.07.04-.04.08-.08.1-.15.02-.06.03-.14.04-.23h.27v1.27h-.27c-.01-.18-.06-.31-.14-.38-.08-.07-.22-.11-.43-.11h-.62v1.36Z"/>
          <path class="cls-1" d="m43.25,29.03c0,1.14.74,1.25,1.1,1.25.45,0,1.01-.34,1.01-1.18v-2.31c0-.09,0-.17-.02-.23-.01-.06-.04-.11-.08-.15-.04-.04-.1-.06-.17-.08-.07-.02-.17-.03-.29-.03v-.23h1.48v.23c-.1,0-.18.02-.24.03-.06.02-.11.05-.15.08s-.06.09-.07.15c-.01.06-.02.14-.02.23v2.34c0,.78-.49,1.55-1.55,1.55-.7,0-1.66-.29-1.66-1.61v-2.28c0-.09,0-.17-.02-.23-.01-.06-.04-.11-.08-.15-.04-.04-.09-.06-.15-.08-.06-.02-.15-.03-.25-.03v-.23h1.71v.23c-.12,0-.21.02-.29.03-.07.02-.13.05-.17.08-.04.04-.07.09-.08.15-.01.06-.02.14-.02.23v2.24Z"/>
          <path class="cls-1" d="m48.53,26.06c.96,0,2.18.53,2.18,2.28,0,1.87-1.41,2.27-2.1,2.27h-1.81v-.23c.11,0,.2-.02.27-.03.07-.02.12-.05.16-.08.04-.04.07-.09.08-.15.01-.06.02-.14.02-.23v-3.08c0-.09,0-.17-.02-.23-.01-.06-.04-.11-.08-.15-.04-.04-.09-.06-.16-.08-.07-.02-.16-.03-.27-.03v-.23h1.72Zm1.44,2.36c0-.91-.36-2.05-1.52-2.05h-.45v3.9h.43c1.02,0,1.53-.91,1.53-1.86Z"/>
          <path class="cls-1" d="m53.63,29.19h-1.52l-.22.71c-.03.09-.04.17-.04.23,0,.1.04.16.12.19.08.03.2.05.37.06v.23h-1.41v-.23c.08,0,.15-.02.2-.04.05-.02.1-.05.15-.09.04-.04.08-.1.12-.17.04-.07.07-.16.11-.27l1.22-3.75h.63l1.2,3.74c.03.09.06.17.09.24.03.07.06.13.1.18.04.05.09.08.15.11.06.03.13.05.22.05v.23h-1.66v-.23c.16,0,.27-.03.34-.07.07-.04.11-.11.11-.2,0-.04,0-.07,0-.11,0-.04-.01-.07-.02-.09l-.22-.71Zm-1.42-.32h1.33l-.65-2.15-.67,2.15Z"/>
          <path class="cls-1" d="m72.26,29.88c0,.09,0,.17.02.23.01.06.04.11.08.15s.09.07.16.08c.07.02.16.03.27.03v.23h-1.7v-.23c.11,0,.2-.02.27-.03.07-.02.12-.05.16-.08.04-.04.07-.09.08-.15.01-.06.02-.14.02-.23v-3.08c0-.09,0-.17-.02-.23-.01-.06-.04-.11-.08-.15-.04-.04-.09-.06-.16-.08-.07-.02-.16-.03-.27-.03v-.23h1.7v.23c-.11,0-.2.02-.27.03-.07.02-.12.05-.16.08s-.07.09-.08.15c-.01.06-.02.14-.02.23v3.08Z"/>
          <path class="cls-1" d="m75.42,29.88l.97-3.12s.02-.09.03-.12c0-.03,0-.07,0-.12,0-.09-.04-.15-.11-.18-.07-.03-.19-.05-.35-.06v-.23h1.4v.23c-.08.01-.15.03-.2.05-.06.02-.1.05-.15.09-.04.04-.08.09-.12.17-.04.07-.07.16-.11.27l-1.2,3.75h-.65l-1.18-3.74c-.03-.1-.06-.18-.09-.25-.03-.07-.07-.13-.11-.18-.04-.05-.09-.08-.15-.11-.06-.02-.13-.04-.21-.05v-.23h1.67v.23c-.16,0-.27.03-.34.07-.07.04-.11.11-.11.21,0,.04.01.11.03.2l.94,3.12Z"/>
          <path class="cls-1" d="m77.82,30.38c.11,0,.2-.02.27-.03.07-.02.12-.05.16-.08.04-.04.07-.09.08-.15.01-.06.02-.14.02-.23v-3.08c0-.09,0-.17-.02-.23-.01-.06-.04-.11-.08-.15-.04-.04-.09-.06-.16-.08-.07-.02-.16-.03-.27-.03v-.23h3.14l.07.99h-.28c-.04-.12-.07-.23-.11-.31-.04-.09-.08-.16-.12-.21-.05-.05-.1-.09-.17-.11-.06-.02-.14-.03-.24-.03h-1.1v1.69h.61c.1,0,.19,0,.26-.02s.13-.04.17-.07c.04-.04.08-.08.1-.15.02-.06.03-.14.04-.23h.27v1.25h-.27c-.01-.18-.06-.3-.14-.37-.08-.07-.22-.1-.43-.1h-.62v1.9h1.11c.13,0,.23-.01.31-.03.08-.02.15-.06.2-.12.05-.06.09-.14.12-.23.03-.1.05-.23.06-.38h.3v1.09h-3.29v-.23Z"/>
          <path class="cls-1" d="m84.96,30c.04.06.07.11.1.16.03.04.07.08.11.12s.09.06.15.08c.06.02.13.03.22.03v.23h-1.08c-.15-.29-.7-1.35-.85-1.58-.19-.29-.38-.54-.74-.57v1.43c0,.18.03.3.1.37.07.07.21.11.41.12v.23h-1.71v-.23c.11,0,.2-.02.27-.03.07-.02.12-.05.16-.08.04-.04.07-.09.08-.15.01-.06.02-.14.02-.23v-3.08c0-.09,0-.17-.02-.23-.01-.06-.04-.11-.08-.15-.04-.04-.09-.06-.16-.08-.07-.02-.16-.03-.27-.03v-.23h1.82c1.01,0,1.53.49,1.53,1.23,0,.95-1.11,1.16-1.43,1.16,0,0,.41.1.68.46.09.11.19.27.31.47.12.2.24.41.37.62Zm-.63-2.7c0-.54-.42-.91-.96-.91h-.5v1.84h.47c.61,0,.98-.41.98-.92Z"/>
          <path class="cls-1" d="m88.32,29.5c0-.14-.02-.47-.47-.74-.19-.11-.84-.29-.84-.29-.33-.1-.59-.25-.76-.43-.17-.19-.31-.45-.31-.78,0-.19.03-.36.1-.52.07-.16.17-.29.29-.41.13-.11.32-.21.5-.27.18-.06.4-.09.63-.09.33,0,.59.04.78.11.2.07.35.15.47.23v.71h-.43c-.02-.11-.05-.21-.09-.3-.04-.09-.09-.17-.16-.23-.07-.06-.16-.11-.26-.15-.11-.04-.24-.05-.4-.05-.26,0-.47.07-.62.2-.15.14-.22.3-.22.54,0,.12.02.24.05.32.03.08.08.16.14.22.06.06.15.11.25.16.1.04.22.08.36.12l.46.16c.16.05.33.13.47.2.39.19.54.45.6.58.05.14.1.28.11.46.01.48-.15.81-.43,1.06-.28.25-.75.37-1.28.37-.17,0-.33-.01-.47-.04-.14-.02-.27-.05-.38-.09-.11-.04-.21-.07-.29-.12-.08-.04-.15-.08-.21-.12v-.82h.46c.02.15.05.27.09.38.04.11.1.2.17.27.07.07.17.13.29.16.12.04.26.05.44.05s.33-.02.45-.07c.13-.04.23-.1.3-.18.07-.08.13-.17.17-.27.04-.1.05-.23.05-.35Z"/>
          <path class="cls-1" d="m90.73,29.88c0,.09,0,.17.02.23.01.06.04.11.08.15.04.04.09.07.16.08.07.02.16.03.27.03v.23h-1.71v-.23c.11,0,.2-.02.27-.03.07-.02.12-.05.16-.08.04-.04.07-.09.08-.15.01-.06.02-.14.02-.23v-3.08c0-.09,0-.17-.02-.23-.01-.06-.04-.11-.08-.15-.04-.04-.09-.06-.16-.08-.07-.02-.16-.03-.27-.03v-.23h1.71v.23c-.11,0-.2.02-.27.03-.07.02-.12.05-.16.08-.04.04-.07.09-.08.15-.01.06-.02.14-.02.23v3.08Z"/>
          <path class="cls-1" d="m93.82,29.88c0,.11,0,.19.03.25.02.06.05.11.1.15.05.04.11.06.18.07.08.01.17.02.28.03v.23h-1.84v-.23c.11,0,.2-.01.28-.03.08-.01.14-.04.18-.07.05-.04.08-.08.1-.15.02-.06.03-.15.03-.25v-3.49h-.48c-.11,0-.2.01-.27.04s-.12.06-.17.12c-.04.06-.07.13-.09.22-.02.09-.04.2-.05.34h-.31v-1.04h3.28l.05,1.04h-.31c-.03-.14-.05-.26-.08-.35-.03-.09-.06-.17-.11-.22-.04-.05-.1-.09-.16-.11-.06-.02-.14-.03-.24-.03h-.42v3.49Z"/>
          <path class="cls-1" d="m96.49,30.38c.11,0,.21-.02.28-.03.07-.02.13-.05.17-.08.04-.04.07-.09.09-.15.02-.06.02-.14.02-.23v-1.09l-.98-1.95c-.05-.11-.1-.19-.15-.26-.05-.07-.09-.12-.14-.16-.05-.04-.1-.07-.15-.09-.05-.02-.11-.03-.18-.04v-.23h1.6v.23c-.13,0-.22.02-.27.05-.05.03-.08.08-.08.15,0,.04,0,.09.02.14.02.05.04.11.07.17l.73,1.48.73-1.49c.05-.12.08-.21.08-.28,0-.07-.03-.13-.1-.16-.07-.03-.16-.05-.29-.06v-.23h1.31v.23c-.07,0-.13.02-.18.04-.05.02-.1.05-.15.1-.05.04-.1.1-.15.18-.05.07-.1.17-.17.3l-.9,1.84v1.13c0,.09,0,.17.02.23.02.06.04.11.09.15s.1.07.17.08c.07.02.17.03.28.03v.23h-1.78v-.23Z"/>
          <path class="cls-1" d="m62.92,29.03c0,1.14.74,1.25,1.1,1.25.45,0,1.01-.34,1.01-1.18v-2.31c0-.09,0-.17-.02-.23-.01-.06-.04-.11-.08-.15-.04-.04-.1-.06-.17-.08-.07-.02-.17-.03-.29-.03v-.23h1.48v.23c-.1,0-.18.02-.24.03-.06.02-.11.05-.15.08-.04.04-.06.09-.07.15-.01.06-.02.14-.02.23v2.34c0,.78-.49,1.55-1.55,1.55-.7,0-1.66-.29-1.66-1.61v-2.28c0-.09,0-.17-.02-.23-.01-.06-.04-.11-.08-.15-.04-.04-.09-.06-.15-.08-.06-.02-.15-.03-.25-.03v-.23h1.71v.23c-.12,0-.21.02-.29.03-.07.02-.13.05-.17.08-.04.04-.07.09-.08.15-.01.06-.02.14-.02.23v2.24Z"/>
          <path class="cls-1" d="m69.61,30.61l-2.17-3.47v2.73c0,.09,0,.17.02.23.01.06.04.11.08.15.04.04.09.07.16.08.07.02.16.03.27.03v.23h-1.5v-.23c.11,0,.2-.02.27-.03.07-.02.12-.05.16-.08s.07-.09.08-.15c.01-.06.02-.14.02-.23v-3.08c0-.09,0-.17-.02-.23-.01-.06-.04-.11-.08-.15s-.09-.06-.16-.08c-.07-.02-.16-.03-.27-.03v-.23h1.07l2.09,3.31v-2.58c0-.09,0-.17-.02-.23-.01-.06-.04-.11-.08-.15-.04-.04-.09-.06-.16-.08-.07-.02-.16-.03-.27-.03v-.23h1.45v.23c-.1,0-.18.02-.24.03-.06.02-.11.05-.15.08-.04.04-.06.09-.07.15-.01.06-.02.14-.02.23v3.82h-.47Z"/>
          <path class="cls-1" d="m58.67,30.61l-2.17-3.47v2.73c0,.09,0,.17.02.23.01.06.04.11.08.15s.09.07.16.08c.07.02.16.03.27.03v.23h-1.5v-.23c.11,0,.2-.02.27-.03.07-.02.12-.05.16-.08.04-.04.07-.09.08-.15.01-.06.02-.14.02-.23v-3.08c0-.09,0-.17-.02-.23-.01-.06-.04-.11-.08-.15-.04-.04-.09-.06-.16-.08-.07-.02-.16-.03-.27-.03v-.23h1.07l2.09,3.31v-2.58c0-.09,0-.17-.02-.23-.01-.06-.04-.11-.08-.15s-.09-.06-.16-.08c-.07-.02-.16-.03-.27-.03v-.23h1.45v.23c-.1,0-.18.02-.24.03-.06.02-.11.05-.15.08-.04.04-.06.09-.07.15-.01.06-.02.14-.02.23v3.82h-.47Z"/>
        </g>
        <path class="cls-1" d="m44,1.18c.29.22.66.4.78.77.26.5.31,1.07.34,1.63-.27.95-.91,1.72-1.39,2.56-.51.78-.98,1.59-1.49,2.37-.15.21-.16.47-.22.72.39-.1.75.1,1.11.2.13.25.24.5.38.74-.03.45-.22.86-.46,1.24-.47.88-.93,1.76-1.41,2.64-.15.3-.2.64-.3.96.13.27.32.5.44.77.09.44.2.89.16,1.34-.11,2.13-.18,4.26-.3,6.39-.17.34-.24.86-.7.92-.44-.19-.68-.63-.82-1.07-.08-.9.32-1.75.39-2.63.09-.78-.04-1.57-.05-2.35.02-.27-.13-.5-.26-.73-.13.04-.25.08-.38.11-.38.58-.78,1.14-1.16,1.72-.15-.04-.3-.07-.45-.12-.06-.17-.14-.36-.02-.52.66-1.25,1.34-2.49,2.01-3.73.37-.73.81-1.43,1.13-2.18.2-.71.6-1.37.56-2.13-.39.02-.62.39-.96.55-.22-.18-.45-.36-.67-.54.14-.41.21-.85.46-1.22.62-1.05,1.24-2.1,1.87-3.14.46-.86,1.16-1.66,1.18-2.69-.06-.63-.15-1.26-.22-1.89.15-.24.29-.47.45-.7m4.15,4.36c1.04-.81,2.13-1.57,3.16-2.4.36.08.69.24.94.51-.78,1.15-2.06,1.8-3.01,2.79-.54.71-1.13,1.38-1.66,2.1-.47.82-.9,1.66-1.34,2.49-.13.18-.13.41-.13.62.5-.72.97-1.46,1.46-2.18.63-1.07,1.55-2.06,2.78-2.42.33.21.63.47.82.81-.04,1.24-.61,2.37-.96,3.54-.52,1.39-.53,2.9-.89,4.32-.23.42-.29.97-.76,1.2-.23-.36-.59-.58-1.01-.66-.25.37-.54.71-.77,1.1-.19.47-.37.96-.33,1.48.65-.4,1.31-.8,1.96-1.21.45-.22.92-.39,1.37-.6.35-.17.87-.18,1.09.21.42.41.34,1.02.35,1.55-.23.56-.56,1.1-.65,1.71.55.59,1.08,1.21,1.78,1.64.05.21.12.43.08.65-.14.02-.28.03-.41.05-.32-.22-.73-.35-.96-.68-.28-.37-.66-.63-1.04-.89-.2.39-.51.72-.9.94-.51-.35-.99-.74-1.38-1.22-.14-.23-.2-.49-.3-.73.12-.3.29-.58.49-.82.52.14,1.04.29,1.56.43.27-.21.6-.4.71-.75.14-.43.32-.85.48-1.27-.26-.03-.52-.12-.77-.09-.53.23-1.06.45-1.54.77-.42.28-.91.45-1.26.82-.39.38-.78.75-1.16,1.14-.41.53-.82,1.06-1.21,1.61-.23.45-.45.91-.71,1.35-.28-.12-.64-.24-.7-.58.16-.44.39-.85.56-1.28.15-.41.54-.67.74-1.06.13-.25.27-.49.39-.74.18-.38.2-.81.39-1.18.34-.57.69-1.13,1.01-1.71.24-.65.56-1.27.75-1.93-.02-.7-.14-1.4-.02-2.09-.03-.5.26-.9.49-1.32.11-.2.37-.22.56-.29.36.53.78,1.01,1.18,1.51-.15-.58.14-1.13.25-1.69.23-.96.65-1.89.63-2.9-.2.02-.42-.04-.6.07-.37.2-.77.37-1.04.72-.32.42-.72.77-1.02,1.21-.49,1.07-.97,2.16-1.25,3.31-.44,1.24-.67,2.56-1.29,3.74-.12.14-.31.19-.46.29-.13-.1-.27-.2-.4-.3-.12-.45-.41-.93-.23-1.4.45-1.3.86-2.61,1.31-3.91.64-1.17,1.28-2.35,1.91-3.52.94-1.2,1.89-2.38,2.82-3.58-.8.63-1.47,1.42-2.23,2.09-.38.21-.83.3-1.16.6-.43.38-.84.77-1.28,1.14-.18-.22-.4-.43-.49-.72-.15-.59-.09-1.23.2-1.77.3-.73.66-1.43.95-2.17.09-.28.32-.46.54-.64.16.09.33.17.48.29.21.26.32.58.43.89-.15.58-.33,1.15-.44,1.74.43-.15.75-.46,1.12-.71m.4,8.76c-.11.13-.09.31-.11.47.2,0,.38-.11.51-.26.36-.34.25-.88.34-1.31-.24.37-.49.74-.74,1.11m-.09,6.32c.09.09.18.17.28.25.17.03.33-.02.5-.03.06-.12.13-.24.19-.36-.25-.13-.52-.22-.8-.29-.06.14-.11.29-.17.43m43.7-15.44c.23.17.52.29.71.51.04.31.12.68-.12.93-.5.47-1,.93-1.49,1.41-.06-.13-.12-.26-.17-.39.29-.47.53-.98.8-1.46.13-.32.18-.67.27-1m3.57-.01c.2.17.4.33.61.49-.35.69-1.03,1.09-1.64,1.52.14.18.27.35.42.52.27-.06.55-.12.82-.17.09.22.18.44.28.66-.25.51-.42,1.06-.55,1.61.11.12.23.24.34.36.75-1.32,1.47-2.65,2.22-3.96-.47.08-.95.11-1.43.16-.06-.37.42-.48.66-.68.43.01.98-.17,1.3.22.08.09.15.19.22.29-.21.89-.83,1.6-1.26,2.39-.34.51-.64,1.04-.97,1.55-.19.39-.32.79-.51,1.18.42.01.84.06,1.26.05.47-.08.91-.26,1.39-.3.35-.07.65.17.96.28.01.16.03.31.04.47-.77.47-1.46,1.13-2.36,1.35-1.07.18-2.14.42-3.21.62-.45.1-.94.25-1.18.67.68-.03,1.36-.43,2.04-.19.13.22.25.44.37.66-.14.19-.26.4-.4.59-.37.36-.83.59-1.29.82.34.15.7.02,1.04,0,.59-.03,1.17-.12,1.76-.18.27.15.53.3.78.47.08.28.17.57.25.85-.11.23-.28.43-.5.57-.8-.27-1.65-.19-2.49-.19-.36.03-.7.17-1.04.25-.31.76-.21,1.59-.26,2.39-.05.7.38,1.49-.14,2.1-.31.04-.63.19-.94.08-.48-.12-.97-.19-1.44-.35-.58-.41-1.21-.8-1.59-1.42.64.32,1.26.69,1.95.89.33.12.68-.01,1.01-.06.09-.23.2-.46.27-.7.1-.87-.04-1.76.2-2.61-.03-.04-.1-.12-.13-.16-.95.07-1.85.42-2.68.89-.44.29-.99.3-1.48.44-.46.08-.85-.27-1.13-.58-.13-.23-.22-.47-.33-.71.44-.4,1.06-.32,1.59-.45,1.03-.27,2.06-.56,3.08-.86.37-.12.86-.1,1.1-.47.34-.5.96-.75,1.17-1.34-.55-.02-1.07.19-1.6.28-.22-.18-.26-.47-.32-.73.22-.23.43-.47.66-.69.43-.38.98-.57,1.49-.81.34-.13.37-.54.43-.85-.72-.13-1.45.11-2.09.43-.46.23-.95.41-1.42.63-.24-.07-.45-.2-.65-.35.06-.84.24-1.68.14-2.53-.05-.35.03-.7.11-1.04.06.03.17.09.23.12.13.21.29.4.44.59.21-.06.43-.11.63-.21.15-.15.24-.33.37-.49.41-.35.89-.62,1.4-.78.16-.17.32-.35.47-.53-.02-.13-.04-.26-.05-.39-.33.07-.6.28-.83.52-.05-.53-.26-1.07-.06-1.59.23.08.46.15.69.22.62-.58,1.43-1.01,1.78-1.82m-.52,3.41c-.3.58-.57,1.2-.53,1.87.09.05.17.1.26.15.04-.34.06-.69.14-1.03.09-.32.32-.66.13-.99m-2.13,2.09c-.2.25-.35.54-.6.75-.51.07-1.07,0-1.45-.38,0,.47,0,.94,0,1.4.94-.28,1.9-.51,2.84-.77-.16-.09-.32-.19-.48-.28.03-.21.06-.41.09-.62-.13-.04-.26-.07-.4-.11m2.26.64c-.15.31.35,0,0,0m.5.95c-.12.21-.24.42-.35.63.81-.04,1.58-.31,2.34-.56.29-.08.45-.35.66-.54-.9-.05-1.83.06-2.65.47m-19.46-3.04c.27-1.06-.03-2.18.27-3.24.55.11,1.05.46,1.21,1.01-.21,1.35-.57,2.68-.79,4.04-.27,1.22-.5,2.45-.75,3.68.46-.3.95-.55,1.4-.86.11-.11.17-.25.25-.38-.1-.32-.17-.67.1-.93.45,0,.89,0,1.34,0,.14.15.38.28.26.52-.06.58-.63.85-1.04,1.18-.74.47-1.51.89-2.25,1.36.23.52.54.99.79,1.5.37.83,1.06,1.44,1.63,2.12.51.36,1.04.71,1.58,1.04.34.15.67.33.96.58-.47.33-1.05.41-1.58.62-.34.13-.71.14-1.06.13-.75-.23-1.35-.84-1.62-1.58-.43-1.31-.76-2.64-1.18-3.95-.23.65-.49,1.3-.71,1.95-.34.49-.66,1-1.01,1.48-.55.76-1.44,1.21-2.36,1.33-.24-.04-.48-.09-.71-.18-.21-.1-.28-.34-.39-.53.44-.07.88-.11,1.31-.21.76-.29,1.48-.79,1.87-1.53.33-.67.84-1.27.94-2.03-.46.12-.8.47-1.17.75-.42.45-.72,1.11-1.39,1.22-.23-.4-.29-.87-.37-1.32.25.06.51.12.77.18.71-.54,1.35-1.2,2.15-1.63.39-.19.52-.64.62-1.02.34-1.77.58-3.55.92-5.32m15.37-1.06c.28.09.5.28.69.5-.1.25-.2.5-.27.76-.12.06-.24.13-.35.19-.08-.14-.16-.27-.24-.4.06-.35.12-.7.18-1.05m-27.34.61c.36-.18.76-.01,1.13.02.14.17.28.35.41.53-.22.9-.86,1.62-1.11,2.5-.23.72-.44,1.44-.7,2.14-.14.35-.14.73-.2,1.1-.09.58-.19,1.16-.28,1.74-.15.09-.29.18-.44.28-.21-.17-.45-.33-.57-.58-.14-.28-.29-.59-.59-.73-.27.2-.53.42-.82.6-.34-.47,0-.99.17-1.45-.09-.73-.68-1.41-.39-2.16.11-.22.31-.37.46-.56.2.12.42.22.61.37.34.42.63.9.7,1.45.06.39.13.78.19,1.18.06-.02.18-.05.23-.07.25-1.19.61-2.35.87-3.53.11-.37.17-.75.31-1.11.18-.34.42-.67.48-1.07-.51-.06-.98.18-1.41.41-.34.19-.73.3-1.02.56-.59.49-1.18.97-1.76,1.46-.29.23-.42.58-.64.87.04.47.28.87.46,1.28.15.65.32,1.4-.06,2-.1.22-.24.4-.4.58-.19-.42-.5-.82-.44-1.31.04-.68-.13-1.35-.22-2.02.27-.58.25-1.23.43-1.83.21-.18.37-.41.59-.58.78-.44,1.53-.91,2.31-1.35.57-.23,1.12-.5,1.69-.72m24.04,5.89c.28-.71.39-1.52.97-2.07.05.26.13.52.17.78-.07.24-.19.46-.27.69-.04.33-.01.66,0,.99-.13.16-.29.29-.48.37-.13-.25-.26-.5-.38-.76m-26.34,3.96c.78-.04,1.48-.41,2.18-.71.4.05.79.15,1.15.33.06.18.12.36.18.54-.42.37-.97.47-1.49.61-.04-.08-.13-.23-.17-.3-.75.23-1.52.41-2.27.65-.48.12-.88.42-1.28.7-.29.37-.43.88-.86,1.14-.43.33-1.03.08-1.34-.3-.15-.32-.34-.63-.45-.97.02-.21.06-.42.1-.63.24-.02.49-.03.73-.08,1.19-.28,2.33-.71,3.52-.97h0Z"/>
      </g>
      <g>
        <path class="cls-1" d="m22.05,6.61c-.13-.11-.16-.2-.11-.28.11-.15.34.08.5-.11l1.58-1.89c.17-.2-.1-.37.03-.52.06-.07.15-.06.29.05l1.66,1.38c.21.18.22.34-.05.67-.06.08-.15.14-.21.08-.06-.06-.03-.16-.06-.34-.02-.13-.06-.23-.21-.35l-.52-.43c-.13-.11-.33-.09-.44.04l-.56.67.72.6c.17.14.36-.05.46.04.08.07-.06.27-.19.42-.18.21-.34.39-.43.31-.1-.09.07-.3-.12-.46l-.71-.59-.56.67c-.11.13-.09.33.04.44l.59.49c.15.13.29.13.42.12.16-.02.26-.06.33-.02.1.05.06.15,0,.21-.3.32-.48.43-.67.26l-1.76-1.47Z"/>
        <path class="cls-1" d="m15.93,31.87C7.15,31.87,0,24.72,0,15.93S7.15,0,15.93,0s15.93,7.15,15.93,15.93-7.15,15.93-15.93,15.93ZM15.93.81C7.59.81.81,7.59.81,15.93s6.79,15.13,15.13,15.13,15.13-6.79,15.13-15.13S24.27.81,15.93.81Z"/>
        <path class="cls-1" d="m15.93,26.58c-5.87,0-10.64-4.77-10.64-10.64S10.07,5.29,15.93,5.29s10.64,4.77,10.64,10.64-4.77,10.64-10.64,10.64Zm0-20.48c-5.42,0-9.84,4.41-9.84,9.84s4.41,9.84,9.84,9.84,9.84-4.41,9.84-9.84-4.41-9.84-9.84-9.84Z"/>
        <path class="cls-1" d="m27.56,15.92c-.26.01-.19.28-.35.3-.09.01-.15-.06-.16-.23l-.04-.87c0-.17.03-.24.13-.23.15.01.13.29.38.28l2.51-.1c.26-.01.21-.29.39-.32.09-.01.15.07.16.24l.04.87c0,.17-.05.24-.14.23-.18,0-.16-.28-.41-.27l-2.51.1Z"/>
        <path class="cls-1" d="m30.11,11.93c.09.35.07.58.06.76,0,.12-.04.25.07.32.17.11.09.25-.05.33-.11.06-.38.19-.67.28-.09.03-.19.03-.22-.06-.05-.16.17-.25.35-.6.13-.26.17-.55.07-.88-.11-.37-.35-.53-.62-.4-.61.3.31,2.07-1.01,2.46-.7.21-1.29-.13-1.53-1.02-.08-.29-.07-.61-.03-.86.03-.15-.16-.15-.19-.28-.02-.1.09-.2.21-.29.21-.16.52-.32.7-.39.19-.07.3-.04.33.08.07.24-.74.7-.57,1.55.09.5.35.69.69.6.76-.2-.26-2.04.99-2.51.59-.22,1.2.12,1.42.93Z"/>
        <path class="cls-1" d="m29.94,19.74c.12,0,.19-.07.21-.18l.46-2.42c.02-.11-.02-.2-.13-.25-.1-.05-.42-.14-.53-.16-.08-.02-.16,0-.19.09-.06.2.41.48.36.76l-.03.14c-.02.11-.12.17-.23.16l-2.44-.46c-.25-.05-.16-.32-.3-.36-.09-.03-.15.02-.18.17l-.17.91c-.03.15.01.22.11.23.14,0,.16-.28.41-.23l2.44.46c.11.02.17.12.15.23l-.03.14c-.05.28-.59.37-.61.58,0,.1.06.14.14.15.11.02.43.05.55.04Z"/>
        <path class="cls-1" d="m26.26,19.94c.07-.16.14-.18.22-.15.19.08-.03.28.2.39l.86.38,1.84-.26s.15-.03.22-.07c.16-.08.24-.17.33-.14.09.02.1.12.07.19l-.45,1.02c-.04.1-.13.13-.2.08-.07-.05-.05-.18-.13-.27-.06-.07-.17-.05-.17-.05l-1.27.18.77,1.06s.06.09.14.08c.1-.02.21-.21.32-.2.07,0,.11.08.06.2l-.35.8c-.04.08-.11.14-.18.08-.07-.07-.05-.22-.12-.4-.05-.13-.09-.18-.09-.18l-1.09-1.44-.86-.38c-.24-.1-.23.2-.42.11-.08-.04-.11-.1-.04-.26l.33-.76Z"/>
        <path class="cls-1" d="m1.86,15.39c-.27-.03-.31.25-.5.23-.08-.01-.14-.09-.12-.26l.16-1.25c.16-1.23.96-1.63,1.95-1.51,1.07.14,1.73.86,1.6,1.92l-.17,1.29c-.02.17-.1.22-.17.22-.19,0-.13-.3-.39-.34l-2.37-.3Zm2.29-.44c.16.02.31-.09.33-.25,0,0,.01-.08.03-.27.05-.43-.26-.94-1.21-1.06-.9-.11-1.4.19-1.46.69-.02.18-.04.3-.04.3-.02.16.09.3.25.32l2.1.27Z"/>
        <path class="cls-1" d="m1.57,18.89c-.02-.12.03-.2.11-.21.18-.01.22.24.43.21.16-.03,1.12-.19,1.74-.3.47-.08.84-.31.74-.94-.09-.53-.55-.7-1.02-.62-.36.06-1.68.29-1.7.29-.05,0-.14.03-.18.11-.06.11-.08.24-.18.27-.09.03-.15-.03-.17-.1l-.13-.77c-.02-.12.03-.17.11-.18.09-.01.14.11.27.19.05.03.14.01.2,0,.08-.01,1.1-.19,1.66-.28.66-.11,1.42.04,1.61,1.12.18,1.03-.39,1.57-1.13,1.7-.63.11-1.54.26-1.69.29-.23.04-.17.32-.33.36-.09.02-.16-.05-.18-.17l-.16-.96Z"/>
        <path class="cls-1" d="m6.89,9.51c-.13.15-.21.15-.26.08-.09-.11.16-.36-.03-.53l-1.9-1.67c-.19-.17-.36.16-.53.04-.07-.05-.07-.15,0-.22l.4-.45c.21-.23.34-.26.64-.22.43.06,2.24.27,2.24.27l-1.25-1.09c-.19-.17-.4.12-.54.02-.07-.05-.08-.13.04-.26l.48-.55c.08-.1.17-.1.23-.03.09.12-.12.33.07.51l2.08,1.83c.16.14.16.28.06.41-.05.07-.15.11-.3.1l-3.06-.41,1.63,1.43c.19.17.38-.1.5,0,.07.05.07.14-.04.26l-.45.51Z"/>
        <path class="cls-1" d="m18.5,4.6c-.04.26.23.29.22.43,0,.09-.08.14-.25.11l-.87-.15c-.17-.03-.22-.09-.2-.18.04-.15.31-.07.35-.33l.42-2.47c.04-.26-.23-.28-.22-.44,0-.08.09-.13.25-.1l.87.15c.17.03.23.09.2.18-.05.16-.31.08-.35.34l-.42,2.47Z"/>
        <path class="cls-1" d="m24.41,8.64c-.09-.15-.08-.22,0-.27.12-.06.24.17.45.03l2.09-1.35c.22-.14.04-.37.21-.47.08-.05.17,0,.26.14l.87,1.34c.37.58.37,1.25-.21,1.59-.44.26-.89.09-1.2-.14,0,0-.5.9-.59,1.07-.12.23.03.44-.11.55-.06.04-.14.03-.19-.05l-.61-.95c-.04-.06-.04-.16.04-.19.11-.04.19.1.29.08.08-.01.13-.09.15-.14.03-.06.51-.94.51-.94l-.3-.47-.82.53c-.22.14-.05.33-.16.42-.07.06-.15.04-.24-.11l-.45-.7Zm2.02-.37s.15.24.25.39c.24.37.6.57,1.03.3.3-.19.39-.51.07-1.01-.18-.28-.33-.32-.51-.21l-.84.54Z"/>
        <path class="cls-1" d="m10.33,2.39c.11-.04.21,0,.23.07.05.17-.2.26-.13.46.05.15.39,1.07.6,1.66.16.45.45.76,1.05.54.5-.18.6-.65.44-1.1-.12-.34-.58-1.6-.59-1.62-.02-.05-.06-.13-.14-.16-.12-.04-.25-.04-.3-.13-.04-.08,0-.16.07-.18l.73-.26c.12-.04.17,0,.2.07.03.09-.08.16-.14.3-.02.06.01.14.03.2.03.08.38,1.05.57,1.59.23.63.22,1.41-.82,1.78-.98.35-1.62-.1-1.87-.81-.22-.6-.53-1.47-.58-1.61-.08-.22-.35-.11-.41-.27-.03-.08.02-.16.14-.21l.91-.33Z"/>
        <path class="cls-1" d="m13.9,4.95c-.19,0-.25-.05-.24-.14.02-.14.37-.13.36-.39l-.1-2.53c0-.26-.36-.16-.39-.36-.01-.09.06-.15.16-.15l.6-.02c.31-.01.42.07.6.32.25.35,1.34,1.81,1.34,1.81l-.06-1.66c0-.26-.36-.21-.39-.38-.01-.08.04-.15.22-.15l.73-.03c.13,0,.19.05.17.15-.03.15-.33.14-.32.4l.1,2.77c0,.21-.1.31-.25.32-.09,0-.19-.03-.28-.15l-1.8-2.51.08,2.17c0,.26.33.21.35.36.01.08-.05.14-.22.15l-.68.03Z"/>
        <path class="cls-1" d="m21.8,9.3c-.49-.04-1.25-.08-1.75-.03-1.62.05-2.34.33-3.96.43-.24,0-.35-.31-.29-.55.15-.53.39-.75.45-1.3.06-.31-.1-.63-.33-.83-.46-.29-1.19-.01-1.29.54-.13.51-.22.76-.5,1.22-.41.64-.96,1.16-1.44,1.74-.1.14-.24.27-.25.45.03.32.36.59.68.53.56-.07,1.04-.41,1.44-.78.08.06.18.09.24.17-.43.62-1.03,1.12-1.41,1.78-.09.16-.15.35-.29.48-.07-.51-.13-1.08-.63-1.36-.91-.53-2.61-.62-3.78-.14-.26.1-.43.2-.65.37-.29.22-.43.56-.53.86-.32,1.14-.43,2.27-.26,3.44.12.92.8,1.74,1.67,2.04.53.19,1.1.11,1.65.1.79-.02,1.56-.19,2.14-.77.47-.52.54-1.26.61-1.93.03-.54.46-.97.66-1.45.17-.41.38-.9.56-1.05.18-.15.3.08.23.16-.77,1.6-.96,3.8-.97,5.55-.94-.06-1.86-.02-2.8.04-.48.03-1.26.05-2.14.21-.17.03-.72.21-.89.29-.46.26-.25.92.11,1.23.21.19,1.11,0,1.28-.02,1.82-.39,2.75-.39,4.38-.36.03.88.04,1.84.23,2.96.08.53.1,1.08.48,1.5.18.23.52.23.78.16.29-.1.35-.46.36-.73-.03-.49-.13-.89-.17-1.38-.07-.73-.11-1.46-.12-2.19-.02-1.14-.12-2.29,0-3.43,0-.27.06-.53.08-.8.08-.53.12-1.06.27-1.57.15-.56.4-1.09.51-1.67.03-.5-.34-.91-.4-1.4-.04-.22.13-.42.3-.53.28-.19.62-.25.94-.36.46-.16.95-.15,1.42-.19.88-.03,1.35-.16,2.22-.08.54.01,1.03.09,1.57.09.29,0,.53-.14.56-.4.04-.46-.41-.98-1.01-1.03Zm-12.72,3.82c.38-.3.81-.36,1.28-.38.31.03.63.03.93.09.27.04.49.22.59.47.13.34.13.57.1.93-1.16.05-2.24.15-3.4.13,0-.51.09-.9.5-1.25Zm2.41,3.77c-.19.14-.43.19-.66.2-.55.07-1.06.04-1.58-.18-.41-.28-.5-.65-.56-1.12,1.13-.15,2.16-.4,3.29-.14.01.47-.08.93-.49,1.25Z"/>
        <path class="cls-1" d="m22.83,11.6c-.61-.41-1.39-.45-2.1-.4-.58.01-1.16-.01-1.74.02-.67.11-1.16-.03-1.79.26-.31.16-.62.41-.68.77-.01.29,0,.59.09.86.08.26.3.48.57.52,1.34.16,2.48.01,3.83.07.66,0,1.38-.04,1.91-.47.18-.12.22-.34.27-.54.07-.39-.02-.85-.36-1.09Zm-1.46,1.13c-1.26.04-2.28.11-3.54.08-.09,0-.18-.04-.22-.11-.05-.07-.09-.2.05-.3.2-.14.5-.1.74-.12,1.11-.05,1.96-.07,3.07-.05.11,0,.23,0,.35.02.18.03.27.2.2.34-.07.14-.42.13-.64.14Z"/>
        <path class="cls-1" d="m23.3,14.84c-.1-.3-.28-.53-.66-.63-.54-.14-1.31-.16-2.2-.14-.72.02-1.59.04-2.02.08s-.69.04-1.01.09c-.39.06-.64.22-.83.42-.13.14-.24.31-.3.49-.14.54-.03,1.05.42,1.37.24.18.59.22.9.21,1.59-.09,3.19.01,4.77-.16.38-.04.71-.29.9-.62.19-.34.15-.75.03-1.11Zm-1.62.75c-.09,0-.26.02-.34.03-.97.06-1.36.12-2.74.11-.37,0-.76,0-1.04-.03-.12-.02-.23-.06-.23-.14,0-.08.05-.16.13-.19.15-.06.47-.09.84-.1.74,0,1.48-.05,2.22-.07.41-.02.8-.06,1.21,0,.27.04.28.21.23.27-.04.05-.17.11-.28.12Z"/>
        <path class="cls-1" d="m22.96,17.28c-.23-.08-.43.08-.61.2-.24.22-.43.63-.71.66-.42.04-1.07.13-1.53.17.12-.2.24-.36.37-.53.24-.25.32-.45.21-.63-.07-.12-.21-.16-.38-.14-1.03.07-2.19.08-3.26.18-.34.03-.28.66.04.8.39.17,1.1,0,1.49,0-.02.18-.04.36-.04.47-.5.1-.7.11-1.24.2-.6.11-1.1.15-1.34.38-.2.19-.27.45-.18.7.05.14.36.46.83.34.35-.09.67-.26.9-.35.36-.14.69-.22,1.01-.25.04.28.04.34.04.62-.52.08-.88.2-1.34.33-.29.1-.73.27-.93.41-.18.14-.43.31-.45.52-.1.45.29.89.53.86.34-.05.77-.32,1.05-.48.46-.27.86-.48,1.37-.51.08.18.15.63.24.87.17.46.42.9.76,1.37.22.3.64.49.92.32.29-.17.22-.7.15-.96-.21-.67-.37-.68-.54-1.36-.01-.07-.13-.38-.12-.45.21-.07.73-.16,1.04-.14.55.03.74.15,1.08.04.21-.07.27-.21.29-.28.3-.85.54-1.62.77-2.49.1-.33-.07-.75-.4-.87Zm-1.48,2.55c-.37.04-.99.12-1.42.16-.01-.28,0-.45,0-.73.47-.03,1.11-.18,1.58-.13-.01.27,0,.46-.16.69Z"/>
        <path class="cls-1" d="m4.44,11.6s.41.4.52.51c.18.18.29-.14.45-.09.09.03.1.11.06.2l-.3.67c-.04.08-.1.13-.17.1-.14-.06-.04-.29-.21-.46-.16-.16-2.14-2.15-2.22-2.24-.09-.1-.13-.23-.06-.38.08-.17.24-.2.36-.2.3.01,3.01.16,3.16.17.15,0,.26-.17.39-.12.09.03.1.14.06.23l-.41.92c-.04.09-.2.11-.22-.06-.02-.14-.06-.23-.23-.24-.1,0-.7-.05-.7-.05l-.47,1.05Zm.07-1.08l-1.26-.08.9.88.36-.8Z"/>
        <path class="cls-1" d="m23.27,3.2c.15.06.2.14.16.22-.06.12-.22.05-.4.14-.1.05-.22.19-.22.19,0,0-1.8,1.85-1.93,1.99-.14.14-.3.25-.58.13-.27-.12-.28-.36-.28-.52,0-.17.16-2.6.16-2.6,0,0,.02-.2,0-.32-.02-.24-.23-.38-.16-.52.04-.08.13-.09.25-.04l.95.42c.13.06.16.13.13.21-.04.11-.23.1-.32.16-.08.06-.11.27-.11.27l-.14,2.22,1.58-1.64s.11-.12.11-.22c0-.16-.22-.25-.14-.39.04-.06.12-.08.22-.04l.73.32Z"/>
        <path class="cls-1" d="m6.39,21.64c.07.16.05.25-.04.28-.14.05-.23-.22-.47-.12l-2.26,1.01c-.24.11-.09.37-.26.44-.08.04-.16.01-.23-.15l-.89-1.99c-.14-.3.16-.46.34-.55.13-.06.24-.07.28.03.02.06,0,.13-.08.29-.07.17-.1.24-.02.43l.28.63c.06.13.21.19.35.13l.83-.37-.34-.75c-.1-.23-.4-.05-.45-.25-.03-.11.18-.23.34-.3.28-.13.53-.22.59-.11.08.15-.21.25-.1.49l.34.75.99-.44c.22-.1.06-.37.21-.44.08-.04.16.02.23.17l.36.8Z"/>
        <path class="cls-1" d="m9,28.02c-.12.2-.11.35.05.52.15.15.2.26.14.35-.07.11-.19.06-.28,0l-1.42-.88c-.16-.1-.18-.19-.13-.27.07-.1.25-.05.41-.01.32.08.39-.03.48-.17l.96-1.56c.17-.27.04-.37-.06-.46-.07-.06-.13-.1-.2-.16-.07-.06-.13-.16-.04-.25.09-.09.3,0,.57.07.44.11.61.05.79.15.18.1.2.27.12.4l-1.39,2.25Z"/>
        <path class="cls-1" d="m12.7,29.01c-.75-.16-1.14-.66-.99-1.4.19-.9,1-1.12,1.71-.97.92.19,1.39.95,1.2,1.85-.27,1.27-1.5,1.94-2.72,1.75-.13-.02-.3-.07-.29-.18.01-.13.29-.14.56-.22.78-.22,1.08-.53,1.23-.86-.21.09-.49.07-.71.02Zm1.09-1.04c.08-.37.05-.85-.41-.95-.44-.09-.68.26-.76.7-.06.34,0,.81.43.9.43.1.64-.19.74-.66Z"/>
        <path class="cls-1" d="m21.87,27.02c.17-.28.35-.46.57-.62.59-.43,1.32-.52,1.77.08.6.82.16,1.67-.71,2.17-.53.31-1.1.26-1.34.02-.15-.15-.1-.41.09-.52.17-.1.34-.04.5.08.26.19.45.15.63.06.36-.21.45-.63.09-1.13-.27-.38-.63-.44-.98-.16-.3.23-.42.6-.58.7-.12.08-.21-.02-.27-.11l-.8-1.45c-.04-.07-.02-.17.05-.21l1.83-1.23c.07-.05.17-.02.2.07l.16.44c.03.08,0,.17-.07.21l-1.46.98.34.62Z"/>
        <path class="cls-1" d="m17.86,26.7c.99-.2,1.76.38,1.99,1.54.21,1.06-.13,1.99-1.21,2.22-.93.2-1.8-.35-2.03-1.58-.23-1.25.38-2,1.24-2.18Zm.69,3.38c.41-.08.53-.64.33-1.63-.2-.99-.52-1.47-.94-1.38-.41.08-.55.66-.35,1.64.19.95.57,1.45.95,1.37Z"/>
      </g>
    </g>
  </g>
</svg>