<?xml version="1.0" encoding="UTF-8"?>
<svg id="_图层_2" data-name="图层 2" xmlns="http://www.w3.org/2000/svg" viewBox="0 0 177.07 177.07">
  <defs>
    <style>
      .cls-1 {
        fill: #d9281e;
      }
    </style>
  </defs>
  <g id="_图层_1-2" data-name="图层 1">
    <g>
      <path class="cls-1" d="m122.55,36.75c-.74-.62-.91-1.13-.61-1.55.61-.85,1.86.47,2.77-.62l8.77-10.5c.92-1.1-.58-2.06.15-2.88.34-.39.85-.35,1.59.27l9.21,7.69c1.18.99,1.2,1.89-.3,3.74-.36.44-.86.78-1.19.43-.34-.35-.18-.91-.36-1.88-.14-.73-.33-1.27-1.16-1.96l-2.88-2.4c-.73-.61-1.83-.51-2.44.23l-3.13,3.75,4,3.34c.92.77,2.02-.26,2.57.2.45.38-.31,1.49-1.04,2.36-.97,1.17-1.91,2.14-2.36,1.74-.57-.5.4-1.67-.68-2.57l-3.96-3.3-3.13,3.75c-.62.74-.52,1.83.21,2.45l3.25,2.72c.84.7,1.61.73,2.32.65.9-.1,1.44-.32,1.84-.11.56.29.36.83.04,1.17-1.65,1.75-2.64,2.37-3.73,1.46l-9.76-8.15Z"/>
      <path class="cls-1" d="m88.53,177.07C39.72,177.07,0,137.35,0,88.54S39.72,0,88.53,0s88.53,39.72,88.53,88.54-39.72,88.53-88.53,88.53Zm0-172.59C42.19,4.48,4.48,42.19,4.48,88.54s37.71,84.05,84.05,84.05,84.06-37.71,84.06-84.05S134.88,4.48,88.53,4.48Z"/>
      <path class="cls-1" d="m88.53,147.67c-32.61,0-59.13-26.53-59.13-59.13s26.53-59.13,59.13-59.13,59.13,26.53,59.13,59.13-26.53,59.13-59.13,59.13Zm0-113.78c-30.14,0-54.65,24.52-54.65,54.65s24.52,54.65,54.65,54.65,54.65-24.52,54.65-54.65-24.52-54.65-54.65-54.65Z"/>
      <path class="cls-1" d="m153.13,88.48c-1.44.06-1.08,1.55-1.94,1.68-.51.07-.83-.33-.87-1.29l-.2-4.84c-.04-.92.19-1.31.71-1.28.83.06.7,1.59,2.13,1.53l13.97-.58c1.44-.06,1.16-1.64,2.16-1.77.52-.07.83.38.87,1.34l.2,4.83c.04.97-.27,1.32-.76,1.3-1.02-.04-.86-1.56-2.3-1.5l-13.97.58Z"/>
      <path class="cls-1" d="m167.28,66.27c.52,1.92.38,3.23.31,4.21-.05.65-.25,1.37.41,1.78.96.59.51,1.37-.29,1.81-.64.35-2.13,1.08-3.73,1.57-.49.15-1.03.18-1.22-.35-.3-.88.95-1.37,1.95-3.36.73-1.43.96-3.06.4-4.9-.63-2.06-1.94-2.94-3.43-2.21-3.39,1.67,1.71,11.49-5.58,13.67-3.88,1.16-7.17-.73-8.51-5.65-.44-1.64-.38-3.4-.15-4.8.14-.84-.9-.84-1.06-1.55-.12-.57.49-1.12,1.15-1.63,1.15-.87,2.89-1.8,3.88-2.18,1.07-.41,1.64-.2,1.82.45.37,1.33-4.09,3.88-3.19,8.64.53,2.76,1.97,3.83,3.82,3.33,4.21-1.14-1.44-11.34,5.51-13.97,3.28-1.24,6.69.67,7.9,5.14Z"/>
      <path class="cls-1" d="m166.34,109.7c.64-.04,1.04-.4,1.16-1.02l2.53-13.45c.12-.62-.12-1.1-.71-1.38-.58-.27-2.33-.78-2.92-.89-.45-.09-.89,0-1.05.51-.34,1.11,2.29,2.65,1.99,4.21l-.15.79c-.11.59-.68.97-1.26.86l-13.53-2.55c-1.41-.27-.9-1.76-1.67-2.01-.49-.16-.84.09-1.01.96l-.96,5.08c-.16.83.08,1.24.59,1.26.76.03.87-1.53,2.28-1.27l13.53,2.55c.59.11.97.68.86,1.26l-.15.79c-.3,1.57-3.3,2.04-3.39,3.2-.04.54.34.77.8.85.59.11,2.4.28,3.04.23Z"/>
      <path class="cls-1" d="m145.91,110.79c.39-.89.77-1.01,1.24-.81,1.07.47-.18,1.56,1.14,2.14l4.79,2.09,10.22-1.46s.83-.17,1.24-.38c.89-.46,1.35-.92,1.85-.79.49.13.56.67.39,1.06l-2.48,5.68c-.24.54-.7.72-1.11.46-.41-.27-.29-1-.75-1.53-.33-.38-.94-.26-.94-.26l-7.03,1,4.29,5.9s.36.51.76.45c.55-.09,1.16-1.19,1.8-1.1.39.05.63.45.35,1.09l-1.94,4.45c-.21.47-.62.77-1.02.42-.41-.36-.28-1.2-.67-2.23-.27-.72-.53-1.03-.53-1.03l-6.06-7.98-4.79-2.09c-1.32-.58-1.27,1.09-2.34.62-.47-.21-.64-.57-.25-1.46l1.85-4.24Z"/>
      <path class="cls-1" d="m10.33,85.52c-1.51-.19-1.74,1.41-2.78,1.25-.44-.07-.77-.48-.65-1.42l.89-6.97c.87-6.81,5.36-9.08,10.84-8.37,5.93.76,9.64,4.76,8.88,10.67l-.92,7.19c-.12.96-.53,1.23-.95,1.21-1.05-.05-.73-1.69-2.15-1.88l-13.17-1.69Zm12.71-2.44c.89.11,1.7-.51,1.82-1.39,0,0,.06-.47.19-1.47.3-2.37-1.43-5.22-6.72-5.89-4.99-.64-7.77,1.05-8.13,3.81-.13,1-.21,1.65-.21,1.65-.11.88.52,1.69,1.41,1.8l11.64,1.49Z"/>
      <path class="cls-1" d="m8.73,104.98c-.11-.66.16-1.13.63-1.17.98-.08,1.24,1.34,2.39,1.15.87-.15,6.25-1.07,9.69-1.65,2.62-.45,4.69-1.72,4.09-5.25-.5-2.92-3.05-3.9-5.67-3.46-1.97.34-9.32,1.59-9.47,1.62-.28.05-.77.18-1,.58-.34.6-.47,1.35-.99,1.52-.48.16-.85-.15-.92-.58l-.73-4.25c-.12-.69.17-.95.6-1,.51-.06.8.61,1.51,1.04.3.18.8.07,1.11.01.46-.08,6.12-1.05,9.24-1.58,3.69-.63,7.9.21,8.93,6.25.97,5.7-2.15,8.74-6.27,9.45-3.5.6-8.58,1.46-9.4,1.61-1.26.21-.94,1.8-1.86,1.99-.49.1-.87-.26-.99-.95l-.91-5.32Z"/>
      <path class="cls-1" d="m38.3,52.84c-.71.81-1.17.81-1.46.43-.48-.61.91-1.99-.17-2.94l-10.58-9.29c-1.08-.95-2.02.87-2.95.2-.4-.29-.36-.82,0-1.22l2.21-2.52c1.14-1.3,1.91-1.42,3.57-1.2,2.39.32,12.43,1.51,12.43,1.51l-6.92-6.08c-1.08-.95-2.21.64-3.01.1-.38-.26-.43-.74.21-1.47l2.67-3.04c.47-.54.95-.56,1.26-.15.5.69-.67,1.86.41,2.81l11.56,10.15c.87.76.88,1.58.33,2.26-.3.38-.86.64-1.69.54l-17.02-2.3,9.08,7.97c1.08.95,2.09-.53,2.8-.05.38.26.38.76-.23,1.46l-2.49,2.84Z"/>
      <path class="cls-1" d="m102.8,25.54c-.24,1.42,1.28,1.59,1.24,2.36-.03.51-.43.75-1.39.59l-4.82-.82c-.94-.16-1.24-.52-1.12-1.02.2-.81,1.71-.41,1.95-1.82l2.33-13.74c.24-1.42-1.29-1.54-1.23-2.43.03-.47.47-.72,1.39-.56l4.82.82c.93.16,1.27.51,1.12,1.02-.26.92-1.72.45-1.96,1.86l-2.33,13.74Z"/>
      <path class="cls-1" d="m135.64,48c-.52-.81-.45-1.25.01-1.48.64-.33,1.35.92,2.51.18l11.63-7.49c1.21-.78.24-2.05,1.16-2.61.45-.27.94-.04,1.46.77l4.81,7.47c2.07,3.21,2.06,6.96-1.16,8.84-2.43,1.42-4.93.49-6.69-.78,0,0-2.77,5.02-3.28,5.96-.67,1.25.18,2.47-.59,3.07-.32.25-.77.17-1.05-.26l-3.41-5.29c-.2-.32-.23-.88.22-1.06.58-.24,1.03.55,1.63.47.47-.06.71-.48.86-.77.17-.32,2.85-5.21,2.85-5.21l-1.68-2.61-4.55,2.93c-1.21.78-.26,1.84-.88,2.35-.37.31-.83.21-1.35-.6l-2.51-3.89Zm11.21-2.04s.85,1.33,1.39,2.15c1.33,2.07,3.34,3.18,5.7,1.65,1.64-1.06,2.18-2.81.36-5.64-1-1.56-1.85-1.78-2.81-1.16l-4.64,2.99Z"/>
      <path class="cls-1" d="m57.38,13.28c.63-.23,1.14-.05,1.26.41.25.95-1.1,1.46-.7,2.56.3.83,2.16,5.96,3.35,9.24.91,2.5,2.49,4.21,5.85,2.99,2.79-1.01,3.34-3.59,2.44-6.09-.68-1.88-3.22-8.89-3.27-9.03-.1-.27-.32-.73-.75-.88-.65-.23-1.41-.22-1.67-.7-.24-.45,0-.87.41-1.01l4.06-1.47c.66-.24.97,0,1.09.41.15.49-.46.9-.75,1.67-.13.33.08.8.18,1.1.16.44,2.12,5.84,3.19,8.81,1.28,3.52,1.2,7.81-4.56,9.9-5.44,1.97-8.98-.56-10.41-4.49-1.21-3.34-2.96-8.18-3.25-8.97-.43-1.2-1.94-.6-2.29-1.48-.18-.46.1-.9.76-1.14l5.08-1.84Z"/>
      <path class="cls-1" d="m77.22,27.51c-1.07.04-1.39-.29-1.32-.76.11-.77,2.07-.71,2.02-2.15l-.53-14.07c-.05-1.44-2.03-.87-2.17-2-.06-.48.35-.83.88-.85l3.35-.13c1.73-.06,2.35.41,3.33,1.77,1.41,1.95,7.45,10.06,7.45,10.06l-.35-9.21c-.05-1.44-1.99-1.17-2.14-2.12-.07-.46.24-.82,1.21-.86l4.04-.15c.71-.03,1.07.3.97.81-.16.84-1.81.79-1.76,2.23l.58,15.37c.04,1.16-.54,1.72-1.42,1.79-.48.04-1.05-.19-1.55-.85l-10.03-13.94.45,12.07c.05,1.44,1.82,1.15,1.96,2,.07.45-.29.81-1.22.84l-3.77.14Z"/>
      <path class="cls-1" d="m121.13,51.66c-2.75-.23-6.95-.42-9.71-.18-9.01.29-13.02,1.82-22,2.4-1.34-.01-1.96-1.72-1.63-3.06.85-2.95,2.15-4.16,2.52-7.23.31-1.73-.53-3.5-1.83-4.62-2.56-1.59-6.6-.06-7.15,3-.7,2.85-1.21,4.22-2.76,6.75-2.25,3.55-5.36,6.42-8,9.66-.57.76-1.32,1.49-1.38,2.5.18,1.8,1.99,3.3,3.8,2.96,3.11-.41,5.77-2.29,8.03-4.36.44.32,1.02.51,1.35.97-2.39,3.46-5.71,6.24-7.85,9.9-.51.91-.83,1.96-1.63,2.68-.39-2.84-.73-5.99-3.49-7.58-5.05-2.93-14.52-3.42-21.02-.8-1.42.57-2.38,1.12-3.63,2.06-1.63,1.23-2.38,3.14-2.92,4.77-1.78,6.32-2.38,12.63-1.46,19.12.67,5.12,4.45,9.65,9.31,11.36,2.95,1.05,6.13.62,9.19.55,4.37-.14,8.69-1.06,11.9-4.27,2.64-2.9,3.01-6.98,3.41-10.7.17-2.98,2.57-5.36,3.65-8.04.96-2.28,2.12-5.02,3.11-5.84.99-.82,1.64.43,1.27.89-4.27,8.87-5.32,21.1-5.37,30.81-5.2-.33-10.35-.08-15.54.21-2.69.15-6.98.25-11.9,1.19-.96.18-4,1.14-4.92,1.59-2.54,1.45-1.39,5.1.6,6.83,1.19,1.04,6.19.05,7.11-.11,10.1-2.16,15.28-2.19,24.35-1.97.15,4.91.21,10.24,1.3,16.44.47,2.95.57,5.99,2.64,8.36,1.02,1.28,2.87,1.29,4.32.91,1.63-.56,1.93-2.56,2-4.06-.17-2.7-.75-4.94-.92-7.64-.38-4.05-.6-8.11-.67-12.18-.1-6.34-.68-12.71,0-19.03.05-1.48.32-2.95.46-4.42.45-2.92.68-5.9,1.5-8.75.86-3.12,2.23-6.08,2.83-9.27.19-2.8-1.91-5.07-2.22-7.78-.2-1.25.7-2.33,1.67-2.97,1.58-1.03,3.47-1.41,5.23-2.02,2.55-.87,5.26-.81,7.9-1.07,4.88-.17,7.48-.88,12.34-.46,2.98.07,5.73.51,8.72.48,1.59.05,2.94-.78,3.09-2.25.2-2.58-2.3-5.45-5.6-5.72Zm-70.66,21.23c2.1-1.67,4.51-2,7.11-2.09,1.73.17,3.48.18,5.19.48,1.53.21,2.72,1.24,3.26,2.63.74,1.89.73,3.19.55,5.17-6.42.27-12.46.85-18.88.74.02-2.81.52-5,2.77-6.94Zm13.38,20.96c-1.04.78-2.37,1.04-3.65,1.08-3.06.4-5.9.23-8.77-.98-2.3-1.54-2.75-3.62-3.09-6.23,6.26-.83,11.99-2.2,18.26-.8.08,2.64-.42,5.18-2.74,6.93Z"/>
      <path class="cls-1" d="m126.86,64.45c-3.41-2.26-7.7-2.51-11.66-2.22-3.22.08-6.45-.07-9.67.09-3.7.59-6.46-.14-9.97,1.43-1.72.88-3.44,2.3-3.79,4.3-.08,1.6-.02,3.26.52,4.79.46,1.42,1.65,2.68,3.17,2.92,7.47.88,13.81.07,21.3.37,3.64,0,7.66-.21,10.62-2.61.98-.67,1.24-1.91,1.47-2.99.41-2.17-.09-4.73-1.99-6.07Zm-8.11,6.27c-6.99.21-12.68.61-19.67.45-.5,0-.99-.22-1.24-.63-.25-.41-.5-1.12.26-1.64,1.13-.78,2.78-.58,4.09-.65,6.14-.28,10.91-.4,17.06-.31.6,0,1.28,0,1.95.1.99.15,1.5,1.09,1.1,1.89-.4.8-2.31.7-3.55.79Z"/>
      <path class="cls-1" d="m129.47,82.46c-.54-1.66-1.58-2.97-3.66-3.51-3.01-.78-7.27-.9-12.24-.79-4.01.09-8.86.25-11.22.42-2.36.17-3.82.25-5.6.52-2.18.33-3.57,1.23-4.63,2.33-.74.76-1.31,1.7-1.66,2.73-.8,2.99-.14,5.83,2.31,7.61,1.35.98,3.28,1.2,5,1.17,8.83-.51,17.71.08,26.51-.89,2.11-.23,3.96-1.62,4.99-3.44,1.03-1.89.84-4.18.19-6.16Zm-9.02,4.14c-.5.05-1.43.13-1.87.15-5.37.31-7.54.65-15.24.61-2.05-.02-4.23.05-5.79-.17-.68-.1-1.29-.32-1.29-.78,0-.46.3-.89.74-1.06.86-.34,2.63-.5,4.67-.54,4.12,0,8.22-.3,12.34-.37,2.3-.13,4.44-.33,6.73-.02,1.48.2,1.54,1.19,1.3,1.49-.21.26-.95.61-1.58.68Z"/>
      <path class="cls-1" d="m127.6,96.03c-1.25-.43-2.42.42-3.39,1.1-1.35,1.2-2.4,3.52-3.97,3.68-2.33.23-5.93.73-8.49.94.67-1.1,1.31-1.99,2.08-2.92,1.36-1.41,1.78-2.53,1.18-3.48-.41-.65-1.15-.87-2.14-.8-5.71.41-12.18.45-18.14,1.01-1.92.18-1.56,3.65.23,4.43,2.16.93,6.1-.04,8.25-.01-.1,1-.24,1.98-.24,2.61-2.78.56-3.89.59-6.87,1.09-3.35.61-6.09.84-7.43,2.09-1.12,1.04-1.5,2.48-1.01,3.89.27.78,2.01,2.58,4.63,1.9,1.94-.5,3.75-1.44,5.01-1.92,1.97-.75,3.84-1.22,5.6-1.37.2,1.57.25,1.88.24,3.46-2.91.47-4.92,1.09-7.47,1.83-1.63.54-4.07,1.49-5.14,2.3-1.01.77-2.37,1.71-2.51,2.9-.57,2.49,1.63,4.93,2.94,4.76,1.88-.25,4.26-1.76,5.81-2.66,2.57-1.48,4.75-2.65,7.61-2.86.43.99.82,3.5,1.33,4.86.96,2.55,2.35,5.02,4.24,7.6,1.23,1.68,3.55,2.7,5.14,1.79,1.64-.93,1.21-3.87.81-5.35-1.14-3.71-2.07-3.78-3.01-7.55-.07-.41-.7-2.1-.68-2.52,1.14-.39,4.08-.9,5.75-.8,3.07.19,4.09.82,5.97.22,1.14-.36,1.49-1.15,1.63-1.54,1.66-4.73,2.98-8.99,4.28-13.83.56-1.83-.39-4.18-2.25-4.86Zm-8.21,14.17c-2.07.24-5.52.67-7.89.91-.07-1.55-.05-2.52-.01-4.07,2.6-.18,6.18-1,8.8-.7-.08,1.5,0,2.56-.9,3.85Z"/>
      <path class="cls-1" d="m24.68,64.46s2.26,2.21,2.9,2.85c1,1,1.63-.79,2.47-.53.51.16.55.63.33,1.12l-1.65,3.7c-.2.44-.54.71-.94.54-.76-.31-.22-1.61-1.17-2.58-.88-.9-11.9-11.97-12.36-12.44-.52-.53-.71-1.29-.33-2.13.42-.93,1.34-1.13,2-1.11,1.67.06,16.71.89,17.56.92.85.03,1.45-.94,2.15-.69.5.18.54.79.32,1.28l-2.28,5.12c-.23.52-1.1.6-1.23-.33-.11-.77-.31-1.26-1.29-1.33-.54-.04-3.87-.25-3.87-.25l-2.61,5.85Zm.41-5.99l-6.99-.44,5.01,4.89,1.98-4.45Z"/>
      <path class="cls-1" d="m129.29,17.75c.81.36,1.08.78.88,1.22-.32.66-1.22.3-2.24.78-.55.26-1.22,1.08-1.22,1.08,0,0-9.98,10.26-10.75,11.06-.78.81-1.65,1.41-3.2.73-1.48-.65-1.58-1.97-1.54-2.91.04-.94.87-14.46.87-14.46,0,0,.09-1.11.02-1.77-.13-1.31-1.29-2.12-.9-2.9.22-.44.7-.52,1.39-.22l5.29,2.34c.74.33.91.7.73,1.15-.25.6-1.3.54-1.8.91-.45.34-.62,1.52-.62,1.52l-.76,12.31,8.79-9.09s.62-.67.62-1.2c0-.89-1.2-1.41-.8-2.15.19-.36.64-.46,1.21-.21l4.06,1.8Z"/>
      <path class="cls-1" d="m35.5,120.27c.4.88.28,1.38-.2,1.55-.79.29-1.3-1.24-2.61-.65l-12.53,5.63c-1.31.59-.5,2.03-1.45,2.46-.44.2-.9.06-1.3-.82l-4.96-11.04c-.75-1.68.91-2.56,1.88-3.03.71-.34,1.32-.39,1.55.19.12.31-.06.75-.43,1.6-.41.95-.58,1.32-.1,2.38l1.57,3.49c.33.73,1.19,1.06,1.93.73l4.59-2.06-1.87-4.16c-.57-1.26-2.23-.28-2.5-1.39-.15-.59,1-1.28,1.87-1.67,1.56-.7,2.92-1.23,3.25-.63.46.82-1.15,1.36-.53,2.74l1.87,4.16,5.49-2.46c1.23-.55.32-2.08,1.18-2.46.46-.21.9.09,1.3.97l2,4.46Z"/>
      <path class="cls-1" d="m50.01,155.69c-.68,1.11-.61,1.94.27,2.87.82.86,1.11,1.47.79,1.95-.39.59-1.05.31-1.54,0l-7.9-4.87c-.9-.56-1.02-1.05-.71-1.5.37-.54,1.39-.29,2.27-.07,1.76.43,2.18-.14,2.66-.92l5.33-8.64c.93-1.51.25-2.06-.32-2.54-.4-.33-.72-.58-1.12-.9-.41-.33-.71-.87-.25-1.36.49-.51,1.69.02,3.19.4,2.46.61,3.37.25,4.41.84,1,.57,1.1,1.49.65,2.22l-7.72,12.52Z"/>
      <path class="cls-1" d="m70.56,161.17c-4.14-.9-6.34-3.68-5.48-7.79,1.04-4.98,5.58-6.2,9.52-5.37,5.14,1.08,7.73,5.3,6.68,10.3-1.48,7.05-8.34,10.78-15.09,9.73-.71-.11-1.69-.41-1.63-.99.07-.73,1.61-.78,3.1-1.2,4.32-1.22,6.02-2.93,6.83-4.8-1.15.47-2.7.39-3.94.12Zm6.03-5.79c.43-2.08.29-4.71-2.29-5.26-2.46-.51-3.76,1.42-4.21,3.89-.34,1.87.02,4.48,2.38,5.01,2.42.54,3.57-1.08,4.11-3.65Z"/>
      <path class="cls-1" d="m121.55,150.16c.95-1.57,1.95-2.53,3.15-3.42,3.26-2.42,7.36-2.91,9.82.46,3.32,4.54.87,9.28-3.95,12.08-2.97,1.73-6.1,1.46-7.46.11-.86-.85-.58-2.25.51-2.87.93-.54,1.87-.21,2.75.43,1.46,1.05,2.52.85,3.48.31,2.02-1.15,2.49-3.48.49-6.3-1.48-2.09-3.49-2.43-5.47-.91-1.64,1.27-2.31,3.33-3.22,3.91-.66.42-1.15-.08-1.48-.62l-4.46-8.06c-.23-.41-.11-.92.28-1.18l10.19-6.81c.41-.27.97-.09,1.12.38l.9,2.44c.15.44-.02.93-.41,1.19l-8.13,5.43,1.88,3.45Z"/>
      <path class="cls-1" d="m99.24,148.38c5.52-1.11,9.78,2.13,11.06,8.54,1.18,5.87-.75,11.05-6.72,12.35-5.17,1.13-9.99-1.96-11.26-8.8-1.29-6.94,2.13-11.13,6.92-12.09Zm3.84,18.78c2.3-.46,2.94-3.56,1.84-9.04-1.1-5.48-2.9-8.15-5.2-7.69-2.3.46-3.04,3.65-1.94,9.12,1.06,5.26,3.15,8.04,5.31,7.61Z"/>
    </g>
  </g>
</svg>