<?xml version="1.0" encoding="UTF-8"?>
<svg id="_图层_2" data-name="图层 2" xmlns="http://www.w3.org/2000/svg" viewBox="0 0 215.15 36.85">
  <defs>
    <style>
      .cls-1 {
        fill: #104793;
      }

      .cls-2 {
        fill: #1996bb;
      }

      .cls-3 {
        fill: #104790;
      }
    </style>
  </defs>
  <g id="_图层_1-2" data-name="图层 1">
    <g>
      <path class="cls-1" d="m68.68,17.23c.24-.79,1.14-1.44,1.97-1.45h2.95c.72,0,1.11.54.92,1.15l-3.92,13.11c-.24.79.29,1.53,1.12,1.53h13.11c.83,0,1.28.56,1.04,1.35l-.81,2.7c-.24.79-.59,1.23-1.41,1.23h-14.39c-3.07,0-5.77-2.35-4.76-5.73l4.17-13.89Z"/>
      <path class="cls-1" d="m113.55,15.77h-15.66c-2.65,0-5.43,2.07-6.19,4.61l-3.04,10.15c-1.2,3.98,2.11,6.3,5.38,6.3h17.59c1.02,0,1.8-.44,2.07-1.35l.71-2.36c.25-.82-.65-1.55-1.53-1.55h-17c-1.15.01-1.57-.73-1.35-1.45l.37-1.18h17.13c1.97,0,3.9-.86,4.46-2.72l1.66-5.52c.85-2.82-1.44-4.92-4.6-4.92Zm-1.48,5.97l-.41,1.37c-.09.33-.45.56-.92.56h-13.4c-.51,0-.8-.19-.72-.5l.45-1.47c.16-.52.62-.66,1.12-.66h13.01c.52,0,1.04.15.87.7Z"/>
      <path class="cls-1" d="m122.9,16.6c-.28-.41-.19-.83.31-.83h6.18c.34,0,.79.29,1.07.7l4.05,5.84,7.97-6.12c.29-.23.76-.42,1.21-.42h6.35c.5,0,.53.32.14.63l-12.9,9.9,6.82,9.83c.29.41.17.71-.33.71h-6.16c-.5,0-.67,0-.95-.4l-4.37-6.3-7.95,6.1c-.39.3-.83.61-1.33.61h-6.12c-.5,0-.91-.31-.52-.61l13.15-10.08-6.62-9.54Z"/>
      <path class="cls-1" d="m172.76,15.77h-13.11c-2.81,0-6.64,2.05-7.57,5.14l-2.68,8.94c-1.24,4.13,1.93,6.98,5.74,6.98h13.09c3.56,0,6.64-2.19,7.6-5.37l2.63-8.76c1.24-4.12-1.37-6.94-5.68-6.94Zm-.37,7.9l-1.58,5.27c-.45,1.51-2.03,2.63-3.47,2.63h-9.25c-1.89,0-3.16-1.06-2.68-2.63l1.58-5.27c.46-1.55,1.97-2.63,3.96-2.63h8.71c1.99,0,3.17,1.17,2.73,2.63Z"/>
      <path class="cls-3" d="m38.16,17.63c0,.21-.18.38-.4.38H5.5c-.22,0-.4-.17-.4-.38h0c0-.21.18-.38.4-.38h32.26c.22,0,.4.17.4.38h0Z"/>
      <path class="cls-3" d="m36.88,21.88c0,.21-.18.38-.4.38H4.22c-.22,0-.4-.17-.4-.38h0c0-.21.18-.38.4-.38h32.26c.22,0,.4.17.4.38h0Z"/>
      <path class="cls-3" d="m35.61,26.14c0,.21-.18.38-.4.38H2.95c-.22,0-.4-.17-.4-.38h0c0-.21.18-.38.4-.38h32.26c.22,0,.4.17.4.38h0Z"/>
      <path class="cls-3" d="m34.33,30.39c0,.21-.18.39-.4.39H1.66c-.22,0-.4-.17-.4-.39h0c0-.21.18-.38.4-.38h32.26c.22,0,.4.17.4.38h0Z"/>
      <path class="cls-3" d="m33.07,34.64c0,.21-.18.38-.4.38H.4c-.22,0-.4-.17-.4-.38h0c0-.21.18-.38.4-.38h32.26c.22,0,.4.17.4.38h0Z"/>
      <path class="cls-3" d="m13.54,17.25c.26.21.24.52-.05.69l-3.05,1.77c-.29.17-.74.13-1-.08l-1.99-1.62c-.26-.21-.24-.53.05-.7l3.03-1.77c.29-.17.74-.14,1.01.08l2,1.62Z"/>
      <path class="cls-3" d="m16.96,25.75c.26.21.24.52-.05.69l-3.05,1.77c-.29.17-.74.13-1-.08l-1.99-1.62c-.26-.21-.24-.53.05-.7l3.03-1.77c.29-.17.74-.14,1.01.08l2,1.62Z"/>
      <path class="cls-3" d="m28.4,21.44c.26.21.24.52-.05.69l-3.05,1.77c-.29.17-.74.13-1-.08l-1.99-1.62c-.26-.21-.24-.53.05-.69l3.03-1.77c.29-.17.74-.14,1.01.08l2,1.62Z"/>
      <path class="cls-3" d="m33.44,30c.26.21.24.52-.05.69l-3.05,1.77c-.29.17-.74.13-1-.08l-1.99-1.62c-.26-.21-.24-.52.05-.7l3.03-1.77c.29-.17.74-.13,1.01.08l2,1.62Z"/>
      <path class="cls-3" d="m11.03,34.26c.26.21.24.52-.05.69l-3.05,1.77c-.29.17-.74.13-1-.08l-1.99-1.62c-.26-.21-.24-.53.05-.7l3.03-1.77c.29-.17.74-.13,1.01.08l2,1.62Z"/>
      <path class="cls-1" d="m209.18,15.75h-3.03c-.75,0-1.36.49-1.58,1.22l-3.85,12.82c-.31,1.03-1.55,1.09-1.98.02l-4.15-10.2c-.9-2.19-3.02-3.85-6.06-3.87-2.64-.01-5.26,1.71-5.91,3.87l-4.72,15.77c-.24.79.24,1.44,1.07,1.44h3.03c.75,0,1.37-.49,1.58-1.22l3.85-12.82c.31-1.02,1.55-1.08,1.98-.02l4.15,10.2c.9,2.19,3.03,3.85,6.06,3.87,2.64.01,5.26-1.71,5.91-3.87l4.72-15.77c.24-.79-.25-1.44-1.07-1.44Z"/>
      <path class="cls-2" d="m161.39.01h-3.56c-.31,0-.78.13-1.05.28l-8.16,4.68,1.22-4.07c.15-.49-.15-.9-.67-.9h-1.85c-.52,0-1.06.41-1.21.9l-3.4,11.33c-.15.49.15.9.67.9h1.84c.52,0,1.06-.41,1.21-.9l1.17-3.88,5.29,4.43c.24.2.69.36.99.36h3.56c.31,0,.37-.17.14-.37l-7.05-6.12,10.93-6.35c.27-.15.23-.28-.07-.28Z"/>
      <path class="cls-2" d="m88.47,0h-1.89c-.52,0-1.06.4-1.21.89l-1.22,4.07h-8.05l1.22-4.07C77.48.4,77.18,0,76.66,0h-1.88c-.52,0-1.06.41-1.21.9l-3.4,11.33c-.15.49.15.9.67.9h1.88c.52,0,1.06-.41,1.21-.9l1.17-3.88h8.05l-1.16,3.88c-.15.49.15.9.67.9h1.89c.52,0,1.06-.4,1.21-.89l3.4-11.33c.15-.49-.15-.9-.67-.9Z"/>
      <path class="cls-2" d="m102.68,0h-8.17c-1.75,0-4.14,1.28-4.71,3.21l-1.67,5.57c-.77,2.57,1.2,4.34,3.57,4.34h8.15c2.22,0,4.18-1.36,4.77-3.35l1.63-5.45c.77-2.57-.89-4.33-3.57-4.33Zm-.49,5.37l-.81,2.71c-.31,1.03-1.13,1.7-2.02,1.7h-5.53c-1.24,0-1.96-.97-1.6-2.15l.74-2.46c.35-1.18,1.32-1.95,2.56-1.95h5.07c1.24,0,1.96.97,1.6,2.15Z"/>
      <path class="cls-2" d="m124.78.01h-2.06c-.46,0-.85.31-.99.76l-2.4,7.98c-.19.64-.68.68-.95.01l-1.61-3.93h0l-.99-2.42c-.56-1.37-1.65-2.41-3.9-2.41-1.65,0-3.31,1.17-3.68,2.41l-2.95,9.82c-.15.49.15.9.67.9h2.06c.47,0,.85-.31.99-.76l2.4-7.98c.19-.64.68-.68.95-.02l1.61,3.93h0s.99,2.42.99,2.42c.56,1.36,1.65,2.41,3.9,2.41,1.65,0,3.31-1.17,3.68-2.41l2.95-9.82c.15-.49-.15-.9-.67-.9Z"/>
      <path class="cls-2" d="m142.76.01h-11.98c-1.75,0-4.13,1.28-4.72,3.21l-1.67,5.57c-.77,2.57,1.2,4.34,3.57,4.34h8.15c2.22,0,4.17-1.36,4.77-3.34l1.18-3.95c.15-.49-.15-.9-.67-.9h-5.62c-.52,0-1.06.4-1.21.9l-.43,1.43c-.15.49.15.9.67.9h2.81c-.31,1.03-1.1,1.62-2,1.62h-5.53c-1.24,0-1.96-.97-1.6-2.16l.74-2.46c.36-1.19,1.32-1.95,2.56-1.95h10.23c.52,0,.89-.19,1.02-.6l.49-1.63c.15-.51-.21-.98-.76-.98Z"/>
      <path class="cls-2" d="m174.27,0h-8.17c-1.75,0-4.14,1.28-4.71,3.21l-1.67,5.57c-.77,2.57,1.2,4.34,3.57,4.34h8.15c2.22,0,4.17-1.36,4.77-3.35l1.63-5.45c.77-2.57-.89-4.33-3.58-4.33Zm-.49,5.37l-.81,2.71c-.31,1.03-1.13,1.7-2.03,1.7h-5.53c-1.24,0-1.96-.97-1.6-2.15l.74-2.46c.36-1.18,1.32-1.95,2.56-1.95h5.07c1.24,0,1.96.97,1.6,2.15Z"/>
      <path class="cls-2" d="m196.36.01h-2.06c-.46,0-.85.31-.99.76l-2.39,7.98c-.19.64-.68.68-.95.01l-1.61-3.93h0l-.99-2.42c-.56-1.37-1.65-2.41-3.9-2.41-1.65,0-3.31,1.17-3.68,2.41l-2.95,9.82c-.15.49.15.9.67.9h2.05c.47,0,.85-.31.99-.76l2.4-7.98c.19-.64.68-.68.95-.02l1.61,3.93h0s1,2.42,1,2.42c.56,1.36,1.65,2.41,3.9,2.41,1.65,0,3.31-1.17,3.68-2.41l2.94-9.82c.15-.49-.15-.9-.67-.9Z"/>
      <path class="cls-2" d="m214.35.01h-11.98c-1.75,0-4.13,1.28-4.71,3.21l-1.67,5.57c-.77,2.57,1.21,4.34,3.57,4.34h8.15c2.22,0,4.18-1.36,4.77-3.34l1.19-3.95c.15-.49-.15-.9-.67-.9h-5.63c-.52,0-1.06.4-1.21.9l-.43,1.43c-.15.49.15.9.67.9h2.81c-.31,1.03-1.1,1.62-2,1.62h-5.53c-1.24,0-1.96-.97-1.6-2.16l.74-2.46c.35-1.19,1.32-1.95,2.56-1.95h10.23c.52,0,.89-.19,1.02-.6l.49-1.63c.15-.51-.21-.98-.76-.98Z"/>
      <path class="cls-1" d="m40.38,17.21c.24-.79,1.11-1.44,1.94-1.44h20.11c1.56,0,2.61.96,2.12,2.6l-2.71,9.04c-.24.79-1.41,1.53-2.23,1.53h-16.98l-1.94,6.46c-.24.79-.84,1.44-1.67,1.44h-3.01c-.83,0-1.31-.65-1.07-1.44l3.16-10.54c.2-.66.8-1.18,1.49-1.18h16.98c.31,0,.67-.19.76-.46l.53-1.78c.08-.28-.19-.4-.46-.4h-16.61c-.83,0-1.31-.77-1.07-1.57l.68-2.26Z"/>
    </g>
  </g>
</svg>